<svg width="33" height="34" viewBox="0 0 33 34" fill="none" xmlns="http://www.w3.org/2000/svg">
<path d="M19.232 34C15.52 34 12.256 33.3174 9.44001 31.952C6.62401 30.544 4.42667 28.624 2.84801 26.192C1.31201 23.7174 0.544006 20.8587 0.544006 17.616C0.544006 14.032 1.29067 10.96 2.78401 8.40003C4.27734 5.84003 6.26134 3.87736 8.73601 2.51203C11.2533 1.10402 14.0267 0.400024 17.056 0.400024C20.512 0.400024 23.392 1.12536 25.696 2.57603C28.0427 4.02669 29.8133 6.01069 31.008 8.52802C32.2027 11.0027 32.8 13.84 32.8 17.04C32.8 17.5947 32.7573 18.256 32.672 19.024C32.6293 19.7494 32.5653 20.3254 32.48 20.752H10.976C11.232 21.8614 11.7227 22.8 12.448 23.568C13.1733 24.336 14.0907 24.912 15.2 25.296C16.3093 25.6374 17.5467 25.808 18.912 25.808H28.96V34H19.232ZM10.72 14.544H23.2C23.1147 13.8614 22.9867 13.2 22.816 12.56C22.6453 11.92 22.368 11.3654 21.984 10.896C21.6427 10.384 21.2373 9.95736 20.768 9.61603C20.2987 9.23203 19.744 8.93336 19.104 8.72003C18.5067 8.50669 17.824 8.40003 17.056 8.40003C16.0747 8.40003 15.2 8.57069 14.432 8.91203C13.664 9.25336 13.024 9.72269 12.512 10.32C12 10.8747 11.5947 11.536 11.296 12.304C11.04 13.0294 10.848 13.776 10.72 14.544Z" fill="black"/>
</svg>
