<svg width="25" height="26" viewBox="0 0 25 26" fill="none" xmlns="http://www.w3.org/2000/svg">
<path fill-rule="evenodd" clip-rule="evenodd" d="M6.672 23.664C8.784 24.688 11.232 25.2 14.016 25.2H21.312V19.056H13.776C12.752 19.056 11.824 18.928 10.992 18.672C10.16 18.384 9.472 17.952 8.928 17.376C8.384 16.8 8.016 16.096 7.824 15.264H23.952C24.016 14.944 24.064 14.512 24.096 13.968C24.16 13.392 24.192 12.896 24.192 12.48C24.192 10.08 23.744 7.952 22.848 6.096C21.952 4.208 20.624 2.72 18.864 1.632C17.136 0.543999 14.976 0 12.384 0C10.112 0 8.032 0.527999 6.144 1.584C4.288 2.608 2.8 4.08 1.68 6C0.56 7.92 0 10.224 0 12.912C0 15.344 0.576 17.488 1.728 19.344C2.912 21.168 4.56 22.608 6.672 23.664ZM16.704 9.12C16.832 9.6 16.928 10.096 16.992 10.608H7.632C7.728 10.032 7.872 9.472 8.064 8.928C8.288 8.352 8.592 7.856 8.976 7.44C9.36 6.992 9.84 6.64 10.416 6.384C10.992 6.128 11.648 6 12.384 6C12.96 6 13.472 6.08 13.92 6.24C14.4 6.4 14.816 6.624 15.168 6.912C15.52 7.168 15.824 7.488 16.08 7.872C16.368 8.224 16.576 8.64 16.704 9.12Z" fill="white"/>
</svg>
