<svg width="171" height="27" viewBox="0 0 171 27" fill="none" xmlns="http://www.w3.org/2000/svg">
<path fill-rule="evenodd" clip-rule="evenodd" d="M6.672 23.664C8.784 24.688 11.232 25.2 14.016 25.2H21.312V19.056H13.776C12.752 19.056 11.824 18.928 10.992 18.672C10.16 18.384 9.472 17.952 8.928 17.376C8.384 16.8 8.016 16.096 7.824 15.264H23.952C24.016 14.944 24.064 14.512 24.096 13.968C24.16 13.392 24.192 12.896 24.192 12.48C24.192 10.08 23.744 7.952 22.848 6.096C21.952 4.208 20.624 2.72 18.864 1.632C17.136 0.544 14.976 0 12.384 0C10.112 0 8.032 0.528 6.144 1.584C4.288 2.608 2.8 4.08 1.68 6C0.56 7.92 0 10.224 0 12.912C0 15.344 0.576 17.488 1.728 19.344C2.912 21.168 4.56 22.608 6.672 23.664ZM16.992 10.608H7.632C7.728 10.032 7.872 9.472 8.064 8.928C8.288 8.352 8.592 7.856 8.976 7.44C9.36 6.992 9.84 6.64 10.416 6.384C10.992 6.128 11.648 6 12.384 6C12.96 6 13.472 6.08 13.92 6.24C14.4 6.4 14.816 6.624 15.168 6.912C15.52 7.168 15.824 7.488 16.08 7.872C16.368 8.224 16.576 8.64 16.704 9.12C16.832 9.6 16.928 10.096 16.992 10.608ZM31.392 15.648L27.72 21H31.32L34.488 16.272C34.968 16.288 35.4 16.424 35.784 16.68C36.184 16.92 36.496 17.24 36.72 17.64C36.96 18.04 37.08 18.48 37.08 18.96V21H40.368V18.96C40.368 18.208 40.232 17.504 39.96 16.848C39.688 16.176 39.296 15.584 38.784 15.072C38.272 14.56 37.648 14.168 36.912 13.896L40.44 8.76003H36.84L33.72 13.392C33.336 13.296 32.992 13.128 32.688 12.888C32.384 12.632 32.144 12.32 31.968 11.952C31.792 11.584 31.704 11.192 31.704 10.776V8.76003H28.416V10.776C28.416 11.48 28.528 12.144 28.752 12.768C28.992 13.392 29.328 13.952 29.76 14.448C30.208 14.928 30.752 15.328 31.392 15.648ZM52.0466 8.97603C51.2466 8.64003 50.3266 8.47203 49.2866 8.47203C47.9746 8.47203 46.8306 8.74403 45.8546 9.28803C44.8946 9.83203 44.1506 10.6 43.6226 11.592C43.0946 12.584 42.8306 13.76 42.8306 15.12V26.28H46.1186V19.488H46.1426C46.3986 19.856 46.7106 20.176 47.0786 20.448C47.4626 20.72 47.8866 20.928 48.3506 21.072C48.8306 21.216 49.3266 21.288 49.8386 21.288C51.0386 21.288 52.0786 21.024 52.9586 20.496C53.8386 19.968 54.5186 19.24 54.9986 18.312C55.4946 17.384 55.7426 16.32 55.7426 15.12C55.7426 14.16 55.5986 13.28 55.3106 12.48C55.0226 11.664 54.6066 10.96 54.0626 10.368C53.5186 9.76003 52.8466 9.29603 52.0466 8.97603ZM47.6066 11.76C48.0866 11.44 48.6466 11.28 49.2866 11.28C49.9426 11.28 50.5026 11.44 50.9666 11.76C51.4306 12.08 51.7826 12.512 52.0226 13.056C52.2786 13.6 52.4066 14.208 52.4066 14.88C52.4066 15.552 52.2786 16.16 52.0226 16.704C51.7826 17.248 51.4306 17.68 50.9666 18C50.5026 18.32 49.9426 18.48 49.2866 18.48C48.6466 18.48 48.0866 18.32 47.6066 18C47.1426 17.68 46.7826 17.248 46.5266 16.704C46.2866 16.16 46.1666 15.552 46.1666 14.88C46.1666 14.208 46.2866 13.6 46.5266 13.056C46.7826 12.512 47.1426 12.08 47.6066 11.76ZM60.6341 20.448C61.6261 21.008 62.7541 21.288 64.0181 21.288C65.2821 21.288 66.4101 21.008 67.4021 20.448C68.3941 19.872 69.1781 19.104 69.7541 18.144C70.3301 17.168 70.6181 16.08 70.6181 14.88C70.6181 13.68 70.3301 12.6 69.7541 11.64C69.1781 10.664 68.3941 9.89603 67.4021 9.33603C66.4101 8.76003 65.2821 8.47203 64.0181 8.47203C62.7541 8.47203 61.6261 8.76003 60.6341 9.33603C59.6421 9.89603 58.8581 10.664 58.2821 11.64C57.7061 12.6 57.4181 13.68 57.4181 14.88C57.4181 16.08 57.7061 17.168 58.2821 18.144C58.8581 19.104 59.6421 19.872 60.6341 20.448ZM65.7461 18C65.2661 18.32 64.6901 18.48 64.0181 18.48C63.3461 18.48 62.7621 18.32 62.2661 18C61.7861 17.68 61.4101 17.248 61.1381 16.704C60.8821 16.16 60.7541 15.552 60.7541 14.88C60.7541 14.208 60.8821 13.6 61.1381 13.056C61.4101 12.512 61.7861 12.08 62.2661 11.76C62.7621 11.44 63.3461 11.28 64.0181 11.28C64.6901 11.28 65.2661 11.44 65.7461 11.76C66.2421 12.08 66.6181 12.512 66.8741 13.056C67.1461 13.6 67.2821 14.208 67.2821 14.88C67.2821 15.552 67.1461 16.16 66.8741 16.704C66.6181 17.248 66.2421 17.68 65.7461 18ZM73.0209 13.968V21H76.3089V13.968C76.3089 13.472 76.4289 13.024 76.6689 12.624C76.9089 12.208 77.2289 11.88 77.6289 11.64C78.0449 11.4 78.5009 11.28 78.9969 11.28C79.4929 11.28 79.9409 11.4 80.3409 11.64C80.7569 11.88 81.0849 12.208 81.3249 12.624C81.5649 13.024 81.6849 13.472 81.6849 13.968V21H84.9729V13.968C84.9729 12.96 84.7329 12.04 84.2529 11.208C83.7889 10.376 83.1089 9.71203 82.2129 9.21603C81.3329 8.72003 80.2609 8.47203 78.9969 8.47203C77.7489 8.47203 76.6769 8.72003 75.7809 9.21603C74.8849 9.71203 74.1969 10.376 73.7169 11.208C73.2529 12.04 73.0209 12.96 73.0209 13.968ZM90.6113 20.208C91.6513 20.736 92.8672 21 94.2592 21H97.7152V18.192H94.3073C93.7152 18.192 93.1793 18.112 92.6992 17.952C92.2353 17.776 91.8432 17.52 91.5232 17.184C91.2193 16.848 91.0033 16.432 90.8753 15.936H99.1553C99.1872 15.824 99.2113 15.664 99.2272 15.456C99.2432 15.232 99.2513 15.04 99.2513 14.88C99.2513 13.696 99.0513 12.624 98.6513 11.664C98.2513 10.688 97.6192 9.91203 96.7552 9.33603C95.9072 8.76003 94.7952 8.47203 93.4193 8.47203C92.2673 8.47203 91.2353 8.73603 90.3232 9.26403C89.4112 9.79203 88.6913 10.536 88.1633 11.496C87.6352 12.456 87.3712 13.584 87.3712 14.88C87.3712 16.032 87.6513 17.072 88.2113 18C88.7872 18.928 89.5872 19.664 90.6113 20.208ZM95.9632 13.728H90.8512C90.8993 13.408 90.9792 13.096 91.0912 12.792C91.2193 12.488 91.3873 12.216 91.5953 11.976C91.8033 11.736 92.0592 11.544 92.3633 11.4C92.6833 11.256 93.0433 11.184 93.4433 11.184C93.7473 11.184 94.0273 11.224 94.2832 11.304C94.5393 11.384 94.7633 11.496 94.9553 11.64C95.1472 11.784 95.3152 11.96 95.4593 12.168C95.6032 12.376 95.7152 12.616 95.7952 12.888C95.8753 13.144 95.9313 13.424 95.9632 13.728ZM101.568 13.968V21H104.856V13.968C104.856 13.472 104.976 13.024 105.216 12.624C105.456 12.208 105.776 11.88 106.176 11.64C106.592 11.4 107.048 11.28 107.544 11.28C108.04 11.28 108.488 11.4 108.888 11.64C109.304 11.88 109.632 12.208 109.872 12.624C110.112 13.024 110.232 13.472 110.232 13.968V21H113.52V13.968C113.52 12.96 113.28 12.04 112.8 11.208C112.336 10.376 111.656 9.71203 110.76 9.21603C109.88 8.72003 108.808 8.47203 107.544 8.47203C106.296 8.47203 105.224 8.72003 104.328 9.21603C103.432 9.71203 102.744 10.376 102.264 11.208C101.8 12.04 101.568 12.96 101.568 13.968ZM118.318 20.064C118.942 20.688 119.798 21 120.886 21H124.126V18.192H121.462C121.254 18.192 121.07 18.12 120.91 17.976C120.766 17.816 120.694 17.632 120.694 17.424V11.568H124.126V8.76003H120.694V5.68803H117.406V8.76003H115.318V11.568H117.406V17.52C117.406 18.592 117.71 19.44 118.318 20.064ZM126.838 6.69603C127.254 7.09603 127.742 7.29603 128.302 7.29603C128.862 7.29603 129.342 7.09603 129.742 6.69603C130.158 6.28003 130.366 5.79203 130.366 5.23203C130.366 4.67203 130.158 4.19203 129.742 3.79203C129.342 3.37603 128.862 3.16803 128.302 3.16803C127.742 3.16803 127.254 3.37603 126.838 3.79203C126.438 4.19203 126.238 4.67203 126.238 5.23203C126.238 5.79203 126.438 6.28003 126.838 6.69603ZM135.564 20.208C136.604 20.736 137.82 21 139.212 21H142.668V18.192H139.26C138.668 18.192 138.132 18.112 137.652 17.952C137.188 17.776 136.796 17.52 136.476 17.184C136.172 16.848 135.956 16.432 135.828 15.936H144.108C144.14 15.824 144.164 15.664 144.18 15.456C144.196 15.232 144.204 15.04 144.204 14.88C144.204 13.696 144.004 12.624 143.604 11.664C143.204 10.688 142.572 9.91203 141.708 9.33603C140.86 8.76003 139.748 8.47203 138.372 8.47203C137.22 8.47203 136.188 8.73603 135.276 9.26403C134.364 9.79203 133.644 10.536 133.116 11.496C132.588 12.456 132.324 13.584 132.324 14.88C132.324 16.032 132.604 17.072 133.164 18C133.74 18.928 134.54 19.664 135.564 20.208ZM126.646 8.76003V21H129.958V8.76003H126.646ZM140.916 13.728H135.804C135.852 13.408 135.932 13.096 136.044 12.792C136.172 12.488 136.34 12.216 136.548 11.976C136.756 11.736 137.012 11.544 137.316 11.4C137.636 11.256 137.996 11.184 138.396 11.184C138.7 11.184 138.98 11.224 139.236 11.304C139.492 11.384 139.716 11.496 139.908 11.64C140.1 11.784 140.268 11.96 140.412 12.168C140.556 12.376 140.668 12.616 140.748 12.888C140.828 13.144 140.884 13.424 140.916 13.728ZM146.521 3.48003V21H149.809V3.48003H146.521ZM152.919 3.48003V21H156.207V3.48003H152.919ZM161.838 20.208C162.878 20.736 164.094 21 165.486 21H168.942V18.192H165.534C164.942 18.192 164.406 18.112 163.926 17.952C163.462 17.776 163.07 17.52 162.75 17.184C162.446 16.848 162.23 16.432 162.102 15.936H170.382C170.414 15.824 170.438 15.664 170.454 15.456C170.47 15.232 170.478 15.04 170.478 14.88C170.478 13.696 170.278 12.624 169.878 11.664C169.478 10.688 168.846 9.91203 167.982 9.33603C167.134 8.76003 166.022 8.47203 164.646 8.47203C163.494 8.47203 162.462 8.73603 161.55 9.26403C160.638 9.79203 159.918 10.536 159.39 11.496C158.862 12.456 158.598 13.584 158.598 14.88C158.598 16.032 158.878 17.072 159.438 18C160.014 18.928 160.814 19.664 161.838 20.208ZM167.19 13.728H162.078C162.126 13.408 162.206 13.096 162.318 12.792C162.446 12.488 162.614 12.216 162.822 11.976C163.03 11.736 163.286 11.544 163.59 11.4C163.91 11.256 164.27 11.184 164.67 11.184C164.974 11.184 165.254 11.224 165.51 11.304C165.766 11.384 165.99 11.496 166.182 11.64C166.374 11.784 166.542 11.96 166.686 12.168C166.83 12.376 166.942 12.616 167.022 12.888C167.102 13.144 167.158 13.424 167.19 13.728Z" fill="white"/>
</svg>
