<svg width="33" height="34" viewBox="0 0 33 34" fill="none" xmlns="http://www.w3.org/2000/svg">
<path d="M18.688 33.6C14.976 33.6 11.712 32.9173 8.896 31.552C6.08 30.144 3.88267 28.224 2.304 25.792C0.768 23.3173 0 20.4587 0 17.216C0 13.632 0.746667 10.56 2.24 8C3.73333 5.44 5.71733 3.47733 8.192 2.112C10.7093 0.704 13.4827 0 16.512 0C19.968 0 22.848 0.725334 25.152 2.176C27.4987 3.62667 29.2693 5.61067 30.464 8.128C31.6587 10.6027 32.256 13.44 32.256 16.64C32.256 17.1947 32.2133 17.856 32.128 18.624C32.0853 19.3493 32.0213 19.9253 31.936 20.352H10.432C10.688 21.4613 11.1787 22.4 11.904 23.168C12.6293 23.936 13.5467 24.512 14.656 24.896C15.7653 25.2373 17.0027 25.408 18.368 25.408H28.416V33.6H18.688ZM10.176 14.144H22.656C22.5707 13.4613 22.4427 12.8 22.272 12.16C22.1013 11.52 21.824 10.9653 21.44 10.496C21.0987 9.984 20.6933 9.55733 20.224 9.216C19.7547 8.832 19.2 8.53333 18.56 8.32C17.9627 8.10667 17.28 8 16.512 8C15.5307 8 14.656 8.17067 13.888 8.512C13.12 8.85334 12.48 9.32267 11.968 9.92C11.456 10.4747 11.0507 11.136 10.752 11.904C10.496 12.6293 10.304 13.376 10.176 14.144Z" fill="white"/>
</svg>
