<svg width="180" height="35" viewBox="0 0 180 35" fill="none" xmlns="http://www.w3.org/2000/svg">
<path fill-rule="evenodd" clip-rule="evenodd" d="M9.44001 32.152C12.256 33.5173 15.52 34.2 19.232 34.2H28.96V26.008H18.912C17.5467 26.008 16.3093 25.8373 15.2 25.496C14.0907 25.112 13.1733 24.536 12.448 23.768C11.7227 23 11.232 22.0613 10.976 20.952H32.48C32.5653 20.5253 32.6293 19.9493 32.672 19.224C32.7573 18.456 32.8 17.7946 32.8 17.24C32.8 14.04 32.2027 11.2026 31.008 8.72798C29.8133 6.21064 28.0427 4.22664 25.696 2.77598C23.392 1.32531 20.512 0.599976 17.056 0.599976C14.0267 0.599976 11.2533 1.30398 8.73601 2.71198C6.26134 4.07731 4.27734 6.03998 2.78401 8.59998C1.29067 11.16 0.544006 14.232 0.544006 17.816C0.544006 21.0586 1.31201 23.9173 2.84801 26.392C4.42667 28.824 6.62401 30.744 9.44001 32.152ZM23.2 14.744H10.72C10.848 13.976 11.04 13.2293 11.296 12.504C11.5947 11.736 12 11.0746 12.512 10.52C13.024 9.92264 13.664 9.45331 14.432 9.11198C15.2 8.77064 16.0747 8.59998 17.056 8.59998C17.824 8.59998 18.5067 8.70664 19.104 8.91998C19.744 9.13331 20.2987 9.43198 20.768 9.81598C21.2373 10.1573 21.6427 10.584 21.984 11.096C22.368 11.5653 22.6453 12.12 22.816 12.76C22.9867 13.4 23.1147 14.0613 23.2 14.744ZM40.392 22.648L36.72 28H40.32L43.488 23.272C43.968 23.288 44.4 23.424 44.784 23.68C45.184 23.92 45.496 24.24 45.72 24.64C45.96 25.04 46.08 25.48 46.08 25.96V28H49.368V25.96C49.368 25.208 49.232 24.504 48.96 23.848C48.688 23.176 48.296 22.584 47.784 22.072C47.272 21.56 46.648 21.168 45.912 20.896L49.44 15.76H45.84L42.72 20.392C42.336 20.296 41.992 20.128 41.688 19.888C41.384 19.632 41.144 19.32 40.968 18.952C40.792 18.584 40.704 18.192 40.704 17.776V15.76H37.416V17.776C37.416 18.48 37.528 19.144 37.752 19.768C37.992 20.392 38.328 20.952 38.76 21.448C39.208 21.928 39.752 22.328 40.392 22.648ZM61.0466 15.976C60.2466 15.64 59.3266 15.472 58.2866 15.472C56.9746 15.472 55.8306 15.744 54.8546 16.288C53.8946 16.832 53.1506 17.6 52.6226 18.592C52.0946 19.584 51.8306 20.76 51.8306 22.12V33.28H55.1186V26.488H55.1426C55.3986 26.856 55.7106 27.176 56.0786 27.448C56.4626 27.72 56.8866 27.928 57.3506 28.072C57.8306 28.216 58.3266 28.288 58.8386 28.288C60.0386 28.288 61.0786 28.024 61.9586 27.496C62.8386 26.968 63.5186 26.24 63.9986 25.312C64.4946 24.384 64.7426 23.32 64.7426 22.12C64.7426 21.16 64.5986 20.28 64.3106 19.48C64.0226 18.664 63.6066 17.96 63.0626 17.368C62.5186 16.76 61.8466 16.296 61.0466 15.976ZM56.6066 18.76C57.0866 18.44 57.6466 18.28 58.2866 18.28C58.9426 18.28 59.5026 18.44 59.9666 18.76C60.4306 19.08 60.7826 19.512 61.0226 20.056C61.2786 20.6 61.4066 21.208 61.4066 21.88C61.4066 22.552 61.2786 23.16 61.0226 23.704C60.7826 24.248 60.4306 24.68 59.9666 25C59.5026 25.32 58.9426 25.48 58.2866 25.48C57.6466 25.48 57.0866 25.32 56.6066 25C56.1426 24.68 55.7826 24.248 55.5266 23.704C55.2866 23.16 55.1666 22.552 55.1666 21.88C55.1666 21.208 55.2866 20.6 55.5266 20.056C55.7826 19.512 56.1426 19.08 56.6066 18.76ZM69.6341 27.448C70.6261 28.008 71.7541 28.288 73.0181 28.288C74.2821 28.288 75.4101 28.008 76.4021 27.448C77.3941 26.872 78.1781 26.104 78.7541 25.144C79.3301 24.168 79.6181 23.08 79.6181 21.88C79.6181 20.68 79.3301 19.6 78.7541 18.64C78.1781 17.664 77.3941 16.896 76.4021 16.336C75.4101 15.76 74.2821 15.472 73.0181 15.472C71.7541 15.472 70.6261 15.76 69.6341 16.336C68.6421 16.896 67.8581 17.664 67.2821 18.64C66.7061 19.6 66.4181 20.68 66.4181 21.88C66.4181 23.08 66.7061 24.168 67.2821 25.144C67.8581 26.104 68.6421 26.872 69.6341 27.448ZM74.7461 25C74.2661 25.32 73.6901 25.48 73.0181 25.48C72.3461 25.48 71.7621 25.32 71.2661 25C70.7861 24.68 70.4101 24.248 70.1381 23.704C69.8821 23.16 69.7541 22.552 69.7541 21.88C69.7541 21.208 69.8821 20.6 70.1381 20.056C70.4101 19.512 70.7861 19.08 71.2661 18.76C71.7621 18.44 72.3461 18.28 73.0181 18.28C73.6901 18.28 74.2661 18.44 74.7461 18.76C75.2421 19.08 75.6181 19.512 75.8741 20.056C76.1461 20.6 76.2821 21.208 76.2821 21.88C76.2821 22.552 76.1461 23.16 75.8741 23.704C75.6181 24.248 75.2421 24.68 74.7461 25ZM82.0209 20.968V28H85.3089V20.968C85.3089 20.472 85.4289 20.024 85.6689 19.624C85.9089 19.208 86.2289 18.88 86.6289 18.64C87.0449 18.4 87.5009 18.28 87.9969 18.28C88.4929 18.28 88.9409 18.4 89.3409 18.64C89.7569 18.88 90.0849 19.208 90.3249 19.624C90.5649 20.024 90.6849 20.472 90.6849 20.968V28H93.9729V20.968C93.9729 19.96 93.7329 19.04 93.2529 18.208C92.7889 17.376 92.1089 16.712 91.2129 16.216C90.3329 15.72 89.2609 15.472 87.9969 15.472C86.7489 15.472 85.6769 15.72 84.7809 16.216C83.8849 16.712 83.1969 17.376 82.7169 18.208C82.2529 19.04 82.0209 19.96 82.0209 20.968ZM99.6113 27.208C100.651 27.736 101.867 28 103.259 28H106.715V25.192H103.307C102.715 25.192 102.179 25.112 101.699 24.952C101.235 24.776 100.843 24.52 100.523 24.184C100.219 23.848 100.003 23.432 99.8753 22.936H108.155C108.187 22.824 108.211 22.664 108.227 22.456C108.243 22.232 108.251 22.04 108.251 21.88C108.251 20.696 108.051 19.624 107.651 18.664C107.251 17.688 106.619 16.912 105.755 16.336C104.907 15.76 103.795 15.472 102.419 15.472C101.267 15.472 100.235 15.736 99.3232 16.264C98.4112 16.792 97.6913 17.536 97.1633 18.496C96.6352 19.456 96.3712 20.584 96.3712 21.88C96.3712 23.032 96.6513 24.072 97.2113 25C97.7872 25.928 98.5872 26.664 99.6113 27.208ZM104.963 20.728H99.8512C99.8993 20.408 99.9792 20.096 100.091 19.792C100.219 19.488 100.387 19.216 100.595 18.976C100.803 18.736 101.059 18.544 101.363 18.4C101.683 18.256 102.043 18.184 102.443 18.184C102.747 18.184 103.027 18.224 103.283 18.304C103.539 18.384 103.763 18.496 103.955 18.64C104.147 18.784 104.315 18.96 104.459 19.168C104.603 19.376 104.715 19.616 104.795 19.888C104.875 20.144 104.931 20.424 104.963 20.728ZM110.568 20.968V28H113.856V20.968C113.856 20.472 113.976 20.024 114.216 19.624C114.456 19.208 114.776 18.88 115.176 18.64C115.592 18.4 116.048 18.28 116.544 18.28C117.04 18.28 117.488 18.4 117.888 18.64C118.304 18.88 118.632 19.208 118.872 19.624C119.112 20.024 119.232 20.472 119.232 20.968V28H122.52V20.968C122.52 19.96 122.28 19.04 121.8 18.208C121.336 17.376 120.656 16.712 119.76 16.216C118.88 15.72 117.808 15.472 116.544 15.472C115.296 15.472 114.224 15.72 113.328 16.216C112.432 16.712 111.744 17.376 111.264 18.208C110.8 19.04 110.568 19.96 110.568 20.968ZM127.318 27.064C127.942 27.688 128.798 28 129.886 28H133.126V25.192H130.462C130.254 25.192 130.07 25.12 129.91 24.976C129.766 24.816 129.694 24.632 129.694 24.424V18.568H133.126V15.76H129.694V12.688H126.406V15.76H124.318V18.568H126.406V24.52C126.406 25.592 126.71 26.44 127.318 27.064ZM135.838 13.696C136.254 14.096 136.742 14.296 137.302 14.296C137.862 14.296 138.342 14.096 138.742 13.696C139.158 13.28 139.366 12.792 139.366 12.232C139.366 11.672 139.158 11.192 138.742 10.792C138.342 10.376 137.862 10.168 137.302 10.168C136.742 10.168 136.254 10.376 135.838 10.792C135.438 11.192 135.238 11.672 135.238 12.232C135.238 12.792 135.438 13.28 135.838 13.696ZM144.564 27.208C145.604 27.736 146.82 28 148.212 28H151.668V25.192H148.26C147.668 25.192 147.132 25.112 146.652 24.952C146.188 24.776 145.796 24.52 145.476 24.184C145.172 23.848 144.956 23.432 144.828 22.936H153.108C153.14 22.824 153.164 22.664 153.18 22.456C153.196 22.232 153.204 22.04 153.204 21.88C153.204 20.696 153.004 19.624 152.604 18.664C152.204 17.688 151.572 16.912 150.708 16.336C149.86 15.76 148.748 15.472 147.372 15.472C146.22 15.472 145.188 15.736 144.276 16.264C143.364 16.792 142.644 17.536 142.116 18.496C141.588 19.456 141.324 20.584 141.324 21.88C141.324 23.032 141.604 24.072 142.164 25C142.74 25.928 143.54 26.664 144.564 27.208ZM135.646 15.76V28H138.958V15.76H135.646ZM149.916 20.728H144.804C144.852 20.408 144.932 20.096 145.044 19.792C145.172 19.488 145.34 19.216 145.548 18.976C145.756 18.736 146.012 18.544 146.316 18.4C146.636 18.256 146.996 18.184 147.396 18.184C147.7 18.184 147.98 18.224 148.236 18.304C148.492 18.384 148.716 18.496 148.908 18.64C149.1 18.784 149.268 18.96 149.412 19.168C149.556 19.376 149.668 19.616 149.748 19.888C149.828 20.144 149.884 20.424 149.916 20.728ZM155.521 10.48V28H158.809V10.48H155.521ZM161.919 10.48V28H165.207V10.48H161.919ZM170.838 27.208C171.878 27.736 173.094 28 174.486 28H177.942V25.192H174.534C173.942 25.192 173.406 25.112 172.926 24.952C172.462 24.776 172.07 24.52 171.75 24.184C171.446 23.848 171.23 23.432 171.102 22.936H179.382C179.414 22.824 179.438 22.664 179.454 22.456C179.47 22.232 179.478 22.04 179.478 21.88C179.478 20.696 179.278 19.624 178.878 18.664C178.478 17.688 177.846 16.912 176.982 16.336C176.134 15.76 175.022 15.472 173.646 15.472C172.494 15.472 171.462 15.736 170.55 16.264C169.638 16.792 168.918 17.536 168.39 18.496C167.862 19.456 167.598 20.584 167.598 21.88C167.598 23.032 167.878 24.072 168.438 25C169.014 25.928 169.814 26.664 170.838 27.208ZM176.19 20.728H171.078C171.126 20.408 171.206 20.096 171.318 19.792C171.446 19.488 171.614 19.216 171.822 18.976C172.03 18.736 172.286 18.544 172.59 18.4C172.91 18.256 173.27 18.184 173.67 18.184C173.974 18.184 174.254 18.224 174.51 18.304C174.766 18.384 174.99 18.496 175.182 18.64C175.374 18.784 175.542 18.96 175.686 19.168C175.83 19.376 175.942 19.616 176.022 19.888C176.102 20.144 176.158 20.424 176.19 20.728Z" fill="white"/>
</svg>
