<svg width="194" height="51" viewBox="0 0 194 51" fill="none" xmlns="http://www.w3.org/2000/svg">
<path fill-rule="evenodd" clip-rule="evenodd" d="M13.344 47.328C17.568 49.376 22.464 50.4 28.032 50.4H42.624V38.112H27.552C25.504 38.112 23.648 37.856 21.984 37.344C20.32 36.768 18.944 35.904 17.856 34.752C16.768 33.6 16.032 32.192 15.648 30.528H47.904C48.032 29.888 48.128 29.024 48.192 27.936C48.32 26.784 48.384 25.792 48.384 24.96C48.384 20.16 47.488 15.904 45.696 12.192C43.904 8.416 41.248 5.44 37.728 3.264C34.272 1.088 29.952 0 24.768 0C20.224 0 16.064 1.056 12.288 3.168C8.576 5.216 5.6 8.16 3.36 12C1.12 15.84 0 20.448 0 25.824C0 30.688 1.152 34.976 3.456 38.688C5.824 42.336 9.12 45.216 13.344 47.328ZM33.984 21.216H15.264C15.456 20.064 15.744 18.944 16.128 17.856C16.576 16.704 17.184 15.712 17.952 14.88C18.72 13.984 19.68 13.28 20.832 12.768C21.984 12.256 23.296 12 24.768 12C25.92 12 26.944 12.16 27.84 12.48C28.8 12.8 29.632 13.248 30.336 13.824C31.04 14.336 31.648 14.976 32.16 15.744C32.736 16.448 33.152 17.28 33.408 18.24C33.664 19.2 33.856 20.192 33.984 21.216ZM54.392 30.648L50.72 36H54.32L57.488 31.272C57.968 31.288 58.4 31.424 58.784 31.68C59.184 31.92 59.496 32.24 59.72 32.64C59.96 33.04 60.08 33.48 60.08 33.96V36H63.368V33.96C63.368 33.208 63.232 32.504 62.96 31.848C62.688 31.176 62.296 30.584 61.784 30.072C61.272 29.56 60.648 29.168 59.912 28.896L63.44 23.76H59.84L56.72 28.392C56.336 28.296 55.992 28.128 55.688 27.888C55.384 27.632 55.144 27.32 54.968 26.952C54.792 26.584 54.704 26.192 54.704 25.776V23.76H51.416V25.776C51.416 26.48 51.528 27.144 51.752 27.768C51.992 28.392 52.328 28.952 52.76 29.448C53.208 29.928 53.752 30.328 54.392 30.648ZM75.0466 23.976C74.2466 23.64 73.3266 23.472 72.2866 23.472C70.9746 23.472 69.8306 23.744 68.8546 24.288C67.8946 24.832 67.1506 25.6 66.6226 26.592C66.0946 27.584 65.8306 28.76 65.8306 30.12V41.28H69.1186V34.488H69.1426C69.3986 34.856 69.7106 35.176 70.0786 35.448C70.4626 35.72 70.8866 35.928 71.3506 36.072C71.8306 36.216 72.3266 36.288 72.8386 36.288C74.0386 36.288 75.0786 36.024 75.9586 35.496C76.8386 34.968 77.5186 34.24 77.9986 33.312C78.4946 32.384 78.7426 31.32 78.7426 30.12C78.7426 29.16 78.5986 28.28 78.3106 27.48C78.0226 26.664 77.6066 25.96 77.0626 25.368C76.5186 24.76 75.8466 24.296 75.0466 23.976ZM70.6066 26.76C71.0866 26.44 71.6466 26.28 72.2866 26.28C72.9426 26.28 73.5026 26.44 73.9666 26.76C74.4306 27.08 74.7826 27.512 75.0226 28.056C75.2786 28.6 75.4066 29.208 75.4066 29.88C75.4066 30.552 75.2786 31.16 75.0226 31.704C74.7826 32.248 74.4306 32.68 73.9666 33C73.5026 33.32 72.9426 33.48 72.2866 33.48C71.6466 33.48 71.0866 33.32 70.6066 33C70.1426 32.68 69.7826 32.248 69.5266 31.704C69.2866 31.16 69.1666 30.552 69.1666 29.88C69.1666 29.208 69.2866 28.6 69.5266 28.056C69.7826 27.512 70.1426 27.08 70.6066 26.76ZM83.6341 35.448C84.6261 36.008 85.7541 36.288 87.0181 36.288C88.2821 36.288 89.4101 36.008 90.4021 35.448C91.3941 34.872 92.1781 34.104 92.7541 33.144C93.3301 32.168 93.6181 31.08 93.6181 29.88C93.6181 28.68 93.3301 27.6 92.7541 26.64C92.1781 25.664 91.3941 24.896 90.4021 24.336C89.4101 23.76 88.2821 23.472 87.0181 23.472C85.7541 23.472 84.6261 23.76 83.6341 24.336C82.6421 24.896 81.8581 25.664 81.2821 26.64C80.7061 27.6 80.4181 28.68 80.4181 29.88C80.4181 31.08 80.7061 32.168 81.2821 33.144C81.8581 34.104 82.6421 34.872 83.6341 35.448ZM88.7461 33C88.2661 33.32 87.6901 33.48 87.0181 33.48C86.3461 33.48 85.7621 33.32 85.2661 33C84.7861 32.68 84.4101 32.248 84.1381 31.704C83.8821 31.16 83.7541 30.552 83.7541 29.88C83.7541 29.208 83.8821 28.6 84.1381 28.056C84.4101 27.512 84.7861 27.08 85.2661 26.76C85.7621 26.44 86.3461 26.28 87.0181 26.28C87.6901 26.28 88.2661 26.44 88.7461 26.76C89.2421 27.08 89.6181 27.512 89.8741 28.056C90.1461 28.6 90.2821 29.208 90.2821 29.88C90.2821 30.552 90.1461 31.16 89.8741 31.704C89.6181 32.248 89.2421 32.68 88.7461 33ZM96.0209 28.968V36H99.3089V28.968C99.3089 28.472 99.4289 28.024 99.6689 27.624C99.9089 27.208 100.229 26.88 100.629 26.64C101.045 26.4 101.501 26.28 101.997 26.28C102.493 26.28 102.941 26.4 103.341 26.64C103.757 26.88 104.085 27.208 104.325 27.624C104.565 28.024 104.685 28.472 104.685 28.968V36H107.973V28.968C107.973 27.96 107.733 27.04 107.253 26.208C106.789 25.376 106.109 24.712 105.213 24.216C104.333 23.72 103.261 23.472 101.997 23.472C100.749 23.472 99.6769 23.72 98.7809 24.216C97.8849 24.712 97.1969 25.376 96.7169 26.208C96.2529 27.04 96.0209 27.96 96.0209 28.968ZM113.611 35.208C114.651 35.736 115.867 36 117.259 36H120.715V33.192H117.307C116.715 33.192 116.179 33.112 115.699 32.952C115.235 32.776 114.843 32.52 114.523 32.184C114.219 31.848 114.003 31.432 113.875 30.936H122.155C122.187 30.824 122.211 30.664 122.227 30.456C122.243 30.232 122.251 30.04 122.251 29.88C122.251 28.696 122.051 27.624 121.651 26.664C121.251 25.688 120.619 24.912 119.755 24.336C118.907 23.76 117.795 23.472 116.419 23.472C115.267 23.472 114.235 23.736 113.323 24.264C112.411 24.792 111.691 25.536 111.163 26.496C110.635 27.456 110.371 28.584 110.371 29.88C110.371 31.032 110.651 32.072 111.211 33C111.787 33.928 112.587 34.664 113.611 35.208ZM118.963 28.728H113.851C113.899 28.408 113.979 28.096 114.091 27.792C114.219 27.488 114.387 27.216 114.595 26.976C114.803 26.736 115.059 26.544 115.363 26.4C115.683 26.256 116.043 26.184 116.443 26.184C116.747 26.184 117.027 26.224 117.283 26.304C117.539 26.384 117.763 26.496 117.955 26.64C118.147 26.784 118.315 26.96 118.459 27.168C118.603 27.376 118.715 27.616 118.795 27.888C118.875 28.144 118.931 28.424 118.963 28.728ZM124.568 28.968V36H127.856V28.968C127.856 28.472 127.976 28.024 128.216 27.624C128.456 27.208 128.776 26.88 129.176 26.64C129.592 26.4 130.048 26.28 130.544 26.28C131.04 26.28 131.488 26.4 131.888 26.64C132.304 26.88 132.632 27.208 132.872 27.624C133.112 28.024 133.232 28.472 133.232 28.968V36H136.52V28.968C136.52 27.96 136.28 27.04 135.8 26.208C135.336 25.376 134.656 24.712 133.76 24.216C132.88 23.72 131.808 23.472 130.544 23.472C129.296 23.472 128.224 23.72 127.328 24.216C126.432 24.712 125.744 25.376 125.264 26.208C124.8 27.04 124.568 27.96 124.568 28.968ZM141.318 35.064C141.942 35.688 142.798 36 143.886 36H147.126V33.192H144.462C144.254 33.192 144.07 33.12 143.91 32.976C143.766 32.816 143.694 32.632 143.694 32.424V26.568H147.126V23.76H143.694V20.688H140.406V23.76H138.318V26.568H140.406V32.52C140.406 33.592 140.71 34.44 141.318 35.064ZM149.838 21.696C150.254 22.096 150.742 22.296 151.302 22.296C151.862 22.296 152.342 22.096 152.742 21.696C153.158 21.28 153.366 20.792 153.366 20.232C153.366 19.672 153.158 19.192 152.742 18.792C152.342 18.376 151.862 18.168 151.302 18.168C150.742 18.168 150.254 18.376 149.838 18.792C149.438 19.192 149.238 19.672 149.238 20.232C149.238 20.792 149.438 21.28 149.838 21.696ZM158.564 35.208C159.604 35.736 160.82 36 162.212 36H165.668V33.192H162.26C161.668 33.192 161.132 33.112 160.652 32.952C160.188 32.776 159.796 32.52 159.476 32.184C159.172 31.848 158.956 31.432 158.828 30.936H167.108C167.14 30.824 167.164 30.664 167.18 30.456C167.196 30.232 167.204 30.04 167.204 29.88C167.204 28.696 167.004 27.624 166.604 26.664C166.204 25.688 165.572 24.912 164.708 24.336C163.86 23.76 162.748 23.472 161.372 23.472C160.22 23.472 159.188 23.736 158.276 24.264C157.364 24.792 156.644 25.536 156.116 26.496C155.588 27.456 155.324 28.584 155.324 29.88C155.324 31.032 155.604 32.072 156.164 33C156.74 33.928 157.54 34.664 158.564 35.208ZM149.646 23.76V36H152.958V23.76H149.646ZM163.916 28.728H158.804C158.852 28.408 158.932 28.096 159.044 27.792C159.172 27.488 159.34 27.216 159.548 26.976C159.756 26.736 160.012 26.544 160.316 26.4C160.636 26.256 160.996 26.184 161.396 26.184C161.7 26.184 161.98 26.224 162.236 26.304C162.492 26.384 162.716 26.496 162.908 26.64C163.1 26.784 163.268 26.96 163.412 27.168C163.556 27.376 163.668 27.616 163.748 27.888C163.828 28.144 163.884 28.424 163.916 28.728ZM169.521 18.48V36H172.809V18.48H169.521ZM175.919 18.48V36H179.207V18.48H175.919ZM184.838 35.208C185.878 35.736 187.094 36 188.486 36H191.942V33.192H188.534C187.942 33.192 187.406 33.112 186.926 32.952C186.462 32.776 186.07 32.52 185.75 32.184C185.446 31.848 185.23 31.432 185.102 30.936H193.382C193.414 30.824 193.438 30.664 193.454 30.456C193.47 30.232 193.478 30.04 193.478 29.88C193.478 28.696 193.278 27.624 192.878 26.664C192.478 25.688 191.846 24.912 190.982 24.336C190.134 23.76 189.022 23.472 187.646 23.472C186.494 23.472 185.462 23.736 184.55 24.264C183.638 24.792 182.918 25.536 182.39 26.496C181.862 27.456 181.598 28.584 181.598 29.88C181.598 31.032 181.878 32.072 182.438 33C183.014 33.928 183.814 34.664 184.838 35.208ZM190.19 28.728H185.078C185.126 28.408 185.206 28.096 185.318 27.792C185.446 27.488 185.614 27.216 185.822 26.976C186.03 26.736 186.286 26.544 186.59 26.4C186.91 26.256 187.27 26.184 187.67 26.184C187.974 26.184 188.254 26.224 188.51 26.304C188.766 26.384 188.99 26.496 189.182 26.64C189.374 26.784 189.542 26.96 189.686 27.168C189.83 27.376 189.942 27.616 190.022 27.888C190.102 28.144 190.158 28.424 190.19 28.728Z" fill="black"/>
</svg>
