<svg width="49" height="51" viewBox="0 0 49 51" fill="none" xmlns="http://www.w3.org/2000/svg">
<path d="M28.032 50.4C22.464 50.4 17.568 49.376 13.344 47.328C9.12 45.216 5.824 42.336 3.456 38.688C1.152 34.976 0 30.688 0 25.824C0 20.448 1.12 15.84 3.36 12C5.6 8.16 8.576 5.216 12.288 3.168C16.064 1.056 20.224 0 24.768 0C29.952 0 34.272 1.088 37.728 3.264C41.248 5.44 43.904 8.416 45.696 12.192C47.488 15.904 48.384 20.16 48.384 24.96C48.384 25.792 48.32 26.784 48.192 27.936C48.128 29.024 48.032 29.888 47.904 30.528H15.648C16.032 32.192 16.768 33.6 17.856 34.752C18.944 35.904 20.32 36.768 21.984 37.344C23.648 37.856 25.504 38.112 27.552 38.112H42.624V50.4H28.032ZM15.264 21.216H33.984C33.856 20.192 33.664 19.2 33.408 18.24C33.152 17.28 32.736 16.448 32.16 15.744C31.648 14.976 31.04 14.336 30.336 13.824C29.632 13.248 28.8 12.8 27.84 12.48C26.944 12.16 25.92 12 24.768 12C23.296 12 21.984 12.256 20.832 12.768C19.68 13.28 18.72 13.984 17.952 14.88C17.184 15.712 16.576 16.704 16.128 17.856C15.744 18.944 15.456 20.064 15.264 21.216Z" fill="white"/>
</svg>
