<svg width="49" height="52" viewBox="0 0 49 52" fill="none" xmlns="http://www.w3.org/2000/svg">
<path d="M28.12 51.2262C22.552 51.2262 17.656 50.2022 13.432 48.1542C9.20795 46.0422 5.91195 43.1622 3.54395 39.5142C1.23995 35.8022 0.0879517 31.5142 0.0879517 26.6502C0.0879517 21.2742 1.20795 16.6662 3.44795 12.8262C5.68795 8.98617 8.66395 6.04217 12.376 3.99417C16.152 1.88217 20.312 0.826172 24.856 0.826172C30.04 0.826172 34.36 1.91417 37.816 4.09017C41.336 6.26617 43.992 9.24217 45.784 13.0182C47.576 16.7302 48.472 20.9862 48.472 25.7862C48.472 26.6182 48.408 27.6102 48.28 28.7622C48.216 29.8502 48.12 30.7142 47.992 31.3542H15.736C16.12 33.0182 16.856 34.4262 17.944 35.5782C19.032 36.7302 20.408 37.5942 22.072 38.1702C23.736 38.6822 25.592 38.9382 27.64 38.9382H42.712V51.2262H28.12ZM15.352 22.0422H34.072C33.944 21.0182 33.752 20.0262 33.496 19.0662C33.24 18.1062 32.824 17.2742 32.248 16.5702C31.736 15.8022 31.128 15.1622 30.424 14.6502C29.72 14.0742 28.888 13.6262 27.928 13.3062C27.032 12.9862 26.008 12.8262 24.856 12.8262C23.384 12.8262 22.072 13.0822 20.92 13.5942C19.768 14.1062 18.808 14.8102 18.04 15.7062C17.272 16.5382 16.664 17.5302 16.216 18.6822C15.832 19.7702 15.544 20.8902 15.352 22.0422Z" fill="black"/>
</svg>
